# xmcd
#
# Track frame offsets:
#	150
#	16043
#	32131
#	43584
#	69846
#	103269
#	139117
#	176618
#	202158
#
# Disc length: 2973 seconds
#
# Revision: 1
# Processed by: cddbd v1.5.1PL2 Copyright (c) Steve Scherf et al.
# Submitted via: EasyCDDAExtractor 9.0.0.1
#
DISCID=780b9b09
DTITLE=Ozzy Osbourne - Obras Sanitarias Buenos Aires 12-09-95 Disc 2 Remaster
DYEAR=1995
DGENRE=Hard Rock
TTITLE0=Sabbath Bloody Sabbath
TTITLE1=Iron Man
TTITLE2=Sweet Leaf
TTITLE3=Children Of The Grave
TTITLE4=Mr Crowley
TTITLE5=War Pigs
TTITLE6=Crazy Train
TTITLE7=Mama I'm Coming Home
TTITLE8=Bark At The Moon
EXTD=
EXTT0=
EXTT1=
EXTT2=
EXTT3=
EXTT4=
EXTT5=
EXTT6=
EXTT7=
EXTT8=
PLAYORDER=
